# This file uses meters as units for non-parametric coordinates.

mtllib TrashBags.mtl
g default
v -748.558540 1.661554 1042.135977
v -706.007101 1.661554 1042.135977
v -727.946994 41.436736 1012.012447
v -724.686248 40.625757 1011.444448
v -728.931107 38.996828 1009.846557
v -725.670361 38.185845 1009.278558
v -749.171542 -4.200583 995.267247
v -706.033232 0.142048 995.854071
v -725.860021 42.163293 1012.733282
v -727.757334 37.459295 1008.557628
v -727.299524 0.211884 986.924069
v -727.273377 1.731385 1051.084897
v -723.665437 39.029524 1010.097908
v -729.951934 40.593061 1011.192970
v -754.441926 1.563910 1017.393891
v -727.273377 -9.483151 1020.869685
v -697.058165 1.731385 1020.869685
v -727.154408 18.533661 987.981389
v -746.995955 17.545510 997.492044
v -753.097237 22.762822 1017.393891
v -745.403443 33.482341 1031.659811
v -726.247646 31.582891 1041.567977
v -707.091865 29.683437 1031.659811
v -699.142465 22.240786 1017.428786
v -707.998611 16.634207 997.889555
v -728.014775 44.380355 1010.388710
v -724.538332 47.534198 1012.652230
v -726.764506 41.774162 1008.611916
v -734.957996 43.785982 1010.672393
v -722.818895 43.089203 1010.945099
v -719.554084 40.416925 1006.666943
v -723.771039 40.525889 1004.740888
v -729.433082 36.652611 1004.141727
v -731.139153 40.465637 1006.611358
vt 2.058563 1.416375
vt 0.603233 1.624523
vt 1.646155 1.865783
vt 1.608360 1.823732
vt 2.701931 1.659553
vt 2.700003 1.748143
vt 2.537969 1.592461
vt 1.508484 1.749866
vt 1.456190 1.717005
vt 1.505978 0.975827
vt 1.756360 1.018914
vt 2.182482 0.818736
vt 1.021548 0.263506
vt 2.714968 0.179880
vt 2.522045 1.074774
vt 0.803878 1.338549
vt 0.956424 1.134504
vt 1.335424 1.735126
vt 1.974378 1.165292
vt 1.563717 1.780914
vt 1.397929 1.729563
vt 0.817118 0.805068
vt 0.566686 0.580406
vt 1.448043 1.838434
vt 1.480767 1.826413
vt 1.861127 0.723041
vt 1.549582 0.603522
vt 1.205512 0.756141
vt 1.161420 1.898781
vt 1.265163 1.830656
vt 1.224902 1.004913
vt 1.322138 1.873848
vt 1.382302 1.846793
vt 1.220745 1.782195
vt 1.273410 1.758001
vt 2.263434 1.663882
vt 0.175317 1.274759
vt 1.508760 1.911130
vt 2.570561 1.753205
vt 2.559734 1.874864
vt 2.732685 1.875003
vt 2.849672 1.875190
vt 2.822014 1.726702
vt 1.648188 1.967403
vt 2.819682 1.599010
vt 1.588374 1.890736
vt 2.118404 0.216576
vt 0.448794 1.001686
vt 2.585401 0.581181
vt 2.734351 1.388901
vt 0.487400 0.250188
vn -0.644375 0.536624 0.544809
vn 0.018393 0.521976 0.852762
vn 0.113377 0.943853 0.310301
vn -0.301462 0.932386 0.199443
vn -0.039300 0.549928 -0.834287
vn 0.107547 0.660508 -0.743076
vn 0.004818 0.743282 -0.668960
vn 0.060733 0.669355 -0.740456
vn -0.543821 0.668065 -0.507886
vn -0.026806 0.698491 -0.715117
vn -0.005614 0.373949 -0.927432
vn -0.702747 0.321474 -0.634666
vn -0.204802 -0.976821 0.062268
vn 0.023398 -0.998264 0.054049
vn -0.013261 -0.970227 0.241835
vn -0.269184 -0.937217 0.221730
vn 0.653234 0.511578 0.558187
vn 0.929092 0.365122 -0.058936
vn 0.586261 0.737908 -0.334351
vn 0.445829 0.886666 0.122716
vn -0.946266 0.322658 -0.021737
vn -0.636587 0.724807 -0.263463
vn 0.174068 0.702347 -0.690224
vn -0.030650 0.813355 -0.580960
vn 0.682164 0.323127 -0.655927
vn 0.453444 0.672804 -0.584571
vn 0.245948 -0.968967 0.024750
vn 0.245701 -0.937690 0.245701
vn -0.216387 0.867870 -0.447190
vn -0.051530 0.806830 -0.588533
vn 0.103161 0.713946 -0.692560
vn -0.141637 -0.986483 -0.082397
vn 0.060122 -0.989673 -0.130124
vn 0.236276 -0.957114 -0.167650
vn -0.050246 0.109274 -0.992741
vn -0.740862 0.105050 -0.663392
vn -0.992532 0.121212 0.013724
vn -0.663545 0.263174 0.700320
vn -0.008344 0.330817 0.943658
vn 0.624709 0.267326 0.733673
vn 0.987205 0.146278 0.063470
vn 0.732806 0.100420 -0.672987
vn -0.053758 0.064144 0.996492
vn -0.072766 0.070946 0.994823
vn -0.359979 0.259617 0.896111
vn -0.528154 -0.462988 0.711825
vn 0.604768 -0.232242 0.761787
vn 0.593835 -0.219822 0.773976
vn 0.535165 -0.813347 0.228178
vn 0.468855 -0.877804 0.098159
vn 0.408751 -0.892965 -0.188511
vn 0.367650 -0.906521 -0.207493
vn 0.004727 -0.997341 0.072726
vn -0.658772 -0.713281 0.239269
s 1
g trashbag2
usemtl initialShadingGroup
f 21/1/1 22/36/2 9/3/3 3/4/4
s 2
f 26/5/5 27/45/6 28/6/7 29/7/8
s 1
f 5/8/9 10/9/10 18/10/11 19/11/12
s 4
f 15/12/13 16/47/14 12/14/15 1/49/16
s 1
f 23/16/17 24/17/18 13/18/19 4/35/20
f 20/19/21 21/1/1 3/4/4 14/20/22
s 2
f 27/45/6 30/43/23 31/42/24 28/6/7
s 1
f 25/31/25 18/10/11 10/9/10 6/21/26
s 4
f 12/51/15 16/13/14 17/22/27 2/23/28
s 1
f 9/34/3 22/2/2 23/16/17 4/35/20
s 2
f 28/6/7 31/42/24 32/41/29 33/40/30
f 29/7/8 28/6/7 33/40/30 34/39/31
s 1
f 19/11/12 20/19/21 14/20/22 5/8/9
s 4
f 7/26/32 11/27/33 16/47/14 15/12/13
f 17/22/27 16/13/14 11/27/33 8/28/34
s 1
f 13/18/19 24/17/18 25/31/25 6/21/26
f 19/11/12 18/10/11 11/27/35 7/26/36
f 7/26/36 15/12/37 20/19/21 19/11/12
f 15/12/37 1/15/38 21/1/1 20/19/21
f 1/15/38 12/50/39 22/36/2 21/1/1
f 23/16/17 22/2/2 12/37/39 2/48/40
f 2/48/40 17/22/41 24/17/18 23/16/17
f 25/31/25 24/17/18 17/22/41 8/28/42
f 11/27/35 18/10/11 25/31/25 8/28/42
f 3/4/4 9/3/43 27/44/44 26/46/45
f 14/20/22 3/4/4 26/46/45 29/38/46
f 9/34/43 4/35/47 30/30/48 27/29/44
f 4/35/47 13/18/49 31/32/50 30/30/48
f 13/18/49 6/21/51 32/33/52 31/32/50
f 6/21/51 10/9/10 33/24/53 32/33/52
f 10/9/10 5/8/9 34/25/54 33/24/53
f 5/8/9 14/20/22 29/38/46 34/25/54
g default
v -748.124436 20.519019 1090.945026
v -706.406426 12.525722 1093.463050
v -719.452891 55.269654 1058.483928
v -716.620980 53.500128 1059.163492
v -719.368754 54.166498 1055.260774
v -716.536842 52.396972 1055.940338
v -749.716515 2.867750 1051.372119
v -706.565805 -1.013752 1053.123456
v -718.075973 54.896719 1060.319148
v -717.913761 52.769907 1054.105118
v -727.435254 0.204557 1043.377303
v -727.208908 19.432956 1100.666520
v -715.264998 52.127542 1057.867211
v -720.724737 55.539084 1056.557055
v -756.945485 15.494691 1070.233896
v -729.530391 -0.602123 1075.528273
v -697.698678 4.142823 1073.809927
v -722.468426 23.261843 1036.734060
v -742.080301 29.097083 1044.885213
v -750.239970 40.663731 1061.759734
v -740.693678 44.028153 1080.898006
v -722.250000 41.817400 1092.018608
v -703.880547 33.301261 1084.352905
v -694.478456 24.415511 1066.992933
v -704.024749 21.051089 1047.854662
v -718.137640 58.362765 1058.576156
v -716.162918 59.118104 1063.339116
v -716.500902 56.151067 1056.590743
v -723.983590 60.382287 1055.353026
v -714.462459 55.099916 1060.771729
v -709.778764 52.828878 1057.770390
v -712.056615 55.104117 1054.432859
v -716.853659 54.040278 1049.608285
v -719.074612 57.269076 1052.470287
vt 2.058563 1.416375
vt 0.603233 1.624523
vt 1.646155 1.865783
vt 1.608360 1.823732
vt 2.701931 1.659553
vt 2.700003 1.748143
vt 2.537969 1.592461
vt 1.508484 1.749866
vt 1.456190 1.717005
vt 1.505978 0.975827
vt 1.756360 1.018914
vt 2.182482 0.818736
vt 1.021548 0.263506
vt 2.714968 0.179880
vt 2.522045 1.074774
vt 0.803878 1.338549
vt 0.956424 1.134504
vt 1.335424 1.735126
vt 1.974378 1.165292
vt 1.563717 1.780914
vt 1.397929 1.729563
vt 0.817118 0.805068
vt 0.566686 0.580406
vt 1.448043 1.838434
vt 1.480767 1.826413
vt 1.861127 0.723041
vt 1.549582 0.603522
vt 1.205512 0.756141
vt 1.161420 1.898781
vt 1.265163 1.830656
vt 1.224902 1.004913
vt 1.322138 1.873848
vt 1.382302 1.846793
vt 1.220745 1.782195
vt 1.273410 1.758001
vt 2.263434 1.663882
vt 0.175317 1.274759
vt 1.508760 1.911130
vt 2.570561 1.753205
vt 2.559734 1.874864
vt 2.732685 1.875003
vt 2.849672 1.875190
vt 2.822014 1.726702
vt 1.648188 1.967403
vt 2.819682 1.599010
vt 1.588374 1.890736
vt 2.118404 0.216576
vt 0.448794 1.001686
vt 2.585401 0.581181
vt 2.734351 1.388901
vt 0.487400 0.250188
vn -0.572941 0.657554 0.489245
vn 0.085404 0.619806 0.780094
vn 0.193750 0.902573 0.384478
vn -0.319318 0.919725 0.228347
vn 0.528544 0.749303 -0.398983
vn 0.611096 0.762750 -0.211600
vn 0.498200 0.851449 -0.163803
vn 0.573201 0.787388 -0.226850
vn -0.345226 0.558574 -0.754197
vn 0.141847 0.462014 -0.875455
vn 0.071582 0.039655 -0.996646
vn -0.596078 0.199751 -0.777683
vn -0.392307 -0.853584 0.342767
vn -0.171867 -0.925333 0.337967
vn -0.189568 -0.818255 0.542699
vn -0.424529 -0.747089 0.511500
vn 0.731363 0.410246 0.544798
vn 0.986137 0.156217 -0.055942
vn 0.814046 0.551124 -0.183280
vn 0.657297 0.709764 0.253368
vn -0.842576 0.508756 -0.176729
vn -0.489947 0.809146 -0.324399
vn 0.640649 0.758120 -0.121749
vn 0.429639 0.899392 -0.080654
vn 0.727519 -0.003040 -0.686080
vn 0.659985 0.412140 -0.628141
vn 0.057967 -0.946511 0.317422
vn 0.057163 -0.839304 0.540649
vn 0.211454 0.976636 -0.038337
vn 0.416187 0.903880 -0.098939
vn 0.586595 0.795778 -0.150477
vn -0.341782 -0.927339 0.152404
vn -0.142406 -0.983066 0.115337
vn 0.055219 -0.995662 0.074892
vn -0.027699 -0.232498 -0.972202
vn -0.684017 -0.014280 -0.729326
vn -0.960656 0.257157 -0.104930
vn -0.679555 0.430458 0.594063
vn 0.003619 0.396897 0.917856
vn 0.704296 0.171728 0.688823
vn 0.994053 -0.104366 0.031100
vn 0.698930 -0.280021 -0.658092
vn -0.604832 -0.226453 0.763478
vn -0.618173 -0.212813 0.756685
vn -0.764882 0.090786 0.637741
vn -0.902624 -0.421490 0.087271
vn 0.016069 -0.663289 0.748191
vn 0.002128 -0.652001 0.758215
vn 0.179063 -0.982935 0.042128
vn 0.190526 -0.974708 -0.116805
vn 0.304123 -0.878112 -0.369363
vn 0.279859 -0.868655 -0.408799
vn -0.186724 -0.896004 -0.402878
vn -0.774406 -0.447336 -0.447421
s 1
g trashbag1
usemtl initialShadingGroup
f 55/52/55 56/87/56 43/54/57 37/55/58
s 2
f 60/56/59 61/96/60 62/57/61 63/58/62
s 1
f 39/59/63 44/60/64 52/61/65 53/62/66
s 4
f 49/63/67 50/98/68 46/65/69 35/100/70
s 1
f 57/67/71 58/68/72 47/69/73 38/86/74
f 54/70/75 55/52/55 37/55/58 48/71/76
s 2
f 61/96/60 64/94/77 65/93/78 62/57/61
s 1
f 59/82/79 52/61/65 44/60/64 40/72/80
s 4
f 46/102/69 50/64/68 51/73/81 36/74/82
s 1
f 43/85/57 56/53/56 57/67/71 38/86/74
s 2
f 62/57/61 65/93/78 66/92/83 67/91/84
f 63/58/62 62/57/61 67/91/84 68/90/85
s 1
f 53/62/66 54/70/75 48/71/76 39/59/63
s 4
f 41/77/86 45/78/87 50/98/68 49/63/67
f 51/73/81 50/64/68 45/78/87 42/79/88
s 1
f 47/69/73 58/68/72 59/82/79 40/72/80
f 53/62/66 52/61/65 45/78/89 41/77/90
f 41/77/90 49/63/91 54/70/75 53/62/66
f 49/63/91 35/66/92 55/52/55 54/70/75
f 35/66/92 46/101/93 56/87/56 55/52/55
f 57/67/71 56/53/56 46/88/93 36/99/94
f 36/99/94 51/73/95 58/68/72 57/67/71
f 59/82/79 58/68/72 51/73/95 42/79/96
f 45/78/89 52/61/65 59/82/79 42/79/96
f 37/55/58 43/54/97 61/95/98 60/97/99
f 48/71/76 37/55/58 60/97/99 63/89/100
f 43/85/97 38/86/101 64/81/102 61/80/98
f 38/86/101 47/69/103 65/83/104 64/81/102
f 47/69/103 40/72/105 66/84/106 65/83/104
f 40/72/105 44/60/64 67/75/107 66/84/106
f 44/60/64 39/59/63 68/76/108 67/75/107
f 39/59/63 48/71/76 63/89/100 68/76/108
